<svg xmlns="http://www.w3.org/2000/svg" xmlns:xlink="http://www.w3.org/1999/xlink" width="40" height="40" version="1.1" viewBox="0 0 40 40"><title>AS</title><defs><circle id="path-1" cx="20" cy="20" r="20"/><rect id="path-3" width="53.364" height="40" x="0" y="0" rx="2"/><rect id="path-5" width="53.364" height="40" x="0" y="0"/><rect id="path-7" width="53.364" height="40" x="0" y="0"/><rect id="path-9" width="30.017" height="23.333" x="0" y="0"/><rect id="path-11" width="53.364" height="40" x="0" y="0"/><rect id="path-13" width="53.364" height="40" x="0" y="0" rx="2"/></defs><g id="Flagpack" fill="none" fill-rule="evenodd" stroke="none" stroke-width="1"><g id="Artboard" transform="translate(-569.000000, -678.000000)"><g id="AS" transform="translate(569.000000, 678.000000)"><mask id="mask-2" fill="#fff"><use xlink:href="#path-1"/></mask><g id="Group" mask="url(#mask-2)"><g id="HM" transform="translate(-6.636364, 0.000000)"><g id="drop-shadow" fill="#000" fill-rule="nonzero"><rect id="path-3" width="53.364" height="40" x="0" y="0" rx="2"/></g><g id="Group-Clipped"><mask id="mask-4" fill="#fff"><use xlink:href="#path-3"/></mask><g id="Group" mask="url(#mask-4)"><g id="contents-Clipped"><mask id="mask-6" fill="#fff"><use xlink:href="#path-5"/></mask><g id="contents" mask="url(#mask-6)"><g id="background" fill="#2E42A5" fill-rule="nonzero"><rect id="path-8" width="53.364" height="40" x="0" y="0"/></g><g id="gb---large-Clipped"><mask id="mask-8" fill="#fff"><use xlink:href="#path-7"/></mask><g id="gb---large" mask="url(#mask-8)"><g id="flag"><g id="mask" fill="#2B409A" fill-rule="nonzero"><rect id="path-10" width="30.017" height="23.333" x="0" y="0"/></g><g id="contents-Clipped"><mask id="mask-10" fill="#fff"><use xlink:href="#path-9"/></mask><g id="contents" mask="url(#mask-10)"><g id="Group" transform="translate(-5.002841, -3.333333)"><g id="stripe" fill-rule="nonzero" transform="translate(1.667614, 0.000000)"><polygon id="white" fill="#F7FCFF" points="-.007 4.106 6.598 1.211 33.502 22.625 36.986 26.927 29.923 27.895 18.949 18.667 10.117 12.45" transform="translate(18.489604, 14.553008) scale(-1, 1) rotate(-180.000000) translate(-18.489604, -14.553008)"/><polygon id="red" fill="#F50100" points=".897 3.459 4.262 1.779 35.735 28.708 31.01 28.708" transform="translate(18.316174, 15.243689) scale(-1, 1) rotate(-180.000000) translate(-18.316174, -15.243689)"/></g><g id="stripe" fill-rule="nonzero" transform="translate(19.177557, 14.166667) scale(-1, 1) translate(-19.177557, -14.166667)"><polygon id="white" fill="#F7FCFF" points="-.007 4.106 6.598 1.211 33.502 22.625 36.986 26.927 29.923 27.895 18.949 18.667 10.117 12.45" transform="translate(18.489604, 14.553008) scale(-1, 1) rotate(-180.000000) translate(-18.489604, -14.553008)"/><polygon id="red" fill="#F50100" points=".218 3.874 3.583 2.193 16.985 13.723 20.958 15.012 37.322 28.136 32.597 28.136 16.242 15.323 11.898 13.778" transform="translate(18.769921, 15.164599) scale(-1, 1) rotate(-180.000000) translate(-18.769921, -15.164599)"/></g><g id="cross" fill="#F50100" fill-rule="nonzero" stroke="#F7FCFF" stroke-width="1.5" transform="translate(3.335227, 1.666667)"><polygon id="red" points="19.569 .417 19.568 10.417 32.935 10.417 32.935 16.25 19.568 16.25 19.569 26.25 13.732 26.25 13.731 16.25 .417 16.25 .417 10.417 13.731 10.417 13.732 .417"/></g></g></g></g></g></g></g><g id="stars-Clipped"><mask id="mask-12" fill="#fff"><use xlink:href="#path-11"/></mask><g id="stars" mask="url(#mask-12)"><g id="Star" transform="translate(10.005682, 3.333333)"><polygon id="Path" fill="#F7FCFF" fill-rule="nonzero" points="5.003 30.833 2.832 32.838 3.047 29.892 .125 29.446 2.564 27.777 1.091 25.216 3.918 26.081 5.003 23.333 6.088 26.081 8.914 25.216 7.442 27.777 9.88 29.446 6.959 29.892 7.173 32.838"/><polygon id="Path" fill="#F7FCFF" fill-rule="nonzero" points="26.682 18.333 25.235 19.67 25.378 17.706 23.43 17.408 25.056 16.296 24.074 14.588 25.958 15.165 26.682 13.333 27.405 15.165 29.289 14.588 28.308 16.296 29.933 17.408 27.986 17.706 28.129 19.67"/><polygon id="Path" fill="#F7FCFF" fill-rule="nonzero" points="30.017 5 28.57 6.337 28.713 4.372 26.765 4.075 28.391 2.962 27.409 1.255 29.293 1.832 30.017 0 30.741 1.832 32.625 1.255 31.643 2.962 33.269 4.075 31.321 4.372 31.464 6.337"/><polygon id="Path" fill="#F7FCFF" fill-rule="nonzero" points="38.355 11.667 36.908 13.003 37.051 11.039 35.104 10.742 36.729 9.629 35.748 7.922 37.632 8.498 38.355 6.667 39.079 8.498 40.963 7.922 39.981 9.629 41.607 10.742 39.659 11.039 39.802 13.003"/><polygon id="Path" fill="#F7FCFF" fill-rule="nonzero" points="31.685 33.333 30.238 34.67 30.381 32.706 28.433 32.408 30.059 31.296 29.077 29.588 30.961 30.165 31.685 28.333 32.408 30.165 34.292 29.588 33.31 31.296 34.936 32.408 32.988 32.706 33.132 34.67"/><polygon id="Path" fill="#F7FCFF" fill-rule="nonzero" points="37.521 20.417 36.051 21.189 36.332 19.553 35.142 18.394 36.786 18.155 37.521 16.667 38.256 18.155 39.9 18.394 38.711 19.553 38.992 21.189"/></g></g></g></g></g></g></g><g id="overlay-Clipped"><mask id="mask-14" fill="#fff"><use xlink:href="#path-13"/></mask><g id="overlay" mask="url(#mask-14)"><g id="path-13-link" style="mix-blend-mode:overlay"><rect id="path-13" width="53.364" height="40" x="0" y="0" rx="2"/></g><rect id="Rectangle" width="51.696" height="38.333" x=".834" y=".833" stroke="#000" stroke-opacity=".1" rx="2"/></g></g></g></g></g></g></g></svg>