<svg xmlns="http://www.w3.org/2000/svg" xmlns:xlink="http://www.w3.org/1999/xlink" width="40" height="40" version="1.1" viewBox="0 0 40 40"><title>BE</title><defs><circle id="path-1" cx="20" cy="20" r="20"/><rect id="path-3" width="53.364" height="40" x="0" y="0" rx="2"/><rect id="path-5" width="53.364" height="40" x="0" y="0"/><rect id="path-7" width="53.364" height="40" x="0" y="0" rx="2"/></defs><g id="Flagpack" fill="none" fill-rule="evenodd" stroke="none" stroke-width="1"><g id="Artboard" transform="translate(-569.000000, -678.000000)"><g id="BE" transform="translate(569.000000, 678.000000)"><mask id="mask-2" fill="#fff"><use xlink:href="#path-1"/></mask><g id="Group" mask="url(#mask-2)"><g id="CN" transform="translate(-6.636364, 0.000000)"><g id="drop-shadow" fill="#000" fill-rule="nonzero"><rect id="path-3" width="53.364" height="40" x="0" y="0" rx="2"/></g><g id="Group-Clipped"><mask id="mask-4" fill="#fff"><use xlink:href="#path-3"/></mask><g id="Group" mask="url(#mask-4)"><g id="contents-Clipped"><mask id="mask-6" fill="#fff"><use xlink:href="#path-5"/></mask><g id="contents" fill-rule="nonzero" mask="url(#mask-6)"><polygon id="background" fill="#E31D1C" points="0 0 53.364 0 53.364 40 0 40"/><g id="mark" fill="#FECA00" transform="translate(3.335227, 1.666667)"><polygon id="Star-5" points="21.705 5.914 20.021 6.93 20.405 4.947 19.002 3.462 20.902 3.382 21.705 1.53 22.509 3.382 24.405 3.382 23.006 4.947 23.427 6.93"/><polygon id="Star-5" points="8.367 14.345 3.563 16.93 4.659 11.886 .658 8.111 6.075 7.907 8.367 3.197 10.659 7.907 16.067 7.907 12.076 11.886 13.277 16.93"/><polygon id="Star-5" points="25.04 12.581 23.356 13.597 23.74 11.614 22.337 10.129 24.237 10.049 25.04 8.197 25.844 10.049 27.74 10.049 26.341 11.614 26.762 13.597"/><polygon id="Star-5" points="23.373 19.247 21.688 20.264 22.072 18.28 20.67 16.796 22.569 16.716 23.373 14.864 24.176 16.716 26.073 16.716 24.673 18.28 25.094 20.264"/><polygon id="Star-5" points="18.37 24.247 16.685 25.264 17.07 23.28 15.667 21.796 17.566 21.716 18.37 19.864 19.174 21.716 21.07 21.716 19.67 23.28 20.092 25.264"/></g></g></g></g></g><g id="overlay-Clipped"><mask id="mask-8" fill="#fff"><use xlink:href="#path-7"/></mask><g id="overlay" mask="url(#mask-8)"><g id="path-9-link" style="mix-blend-mode:overlay"><rect id="path-9" width="53.364" height="40" x="0" y="0" rx="2"/></g><rect id="Rectangle" width="51.696" height="38.333" x=".834" y=".833" stroke="#000" stroke-opacity=".1" rx="2"/></g></g></g></g></g></g></g></svg>