<svg xmlns="http://www.w3.org/2000/svg" xmlns:xlink="http://www.w3.org/1999/xlink" width="40" height="40" version="1.1" viewBox="0 0 40 40"><title>DE</title><defs><circle id="path-1" cx="20" cy="20" r="20"/><rect id="path-3" width="53.333" height="40" x="0" y="0"/><circle id="path-5" cx="20" cy="20" r="20"/></defs><g id="Flagpack" fill="none" fill-rule="evenodd" stroke="none" stroke-width="1"><g id="Artboard" transform="translate(-875.000000, -678.000000)"><g id="DE" transform="translate(875.000000, 678.000000)"><g id="Group-Clipped"><mask id="mask-2" fill="#fff"><use xlink:href="#path-1"/></mask><g id="Group" mask="url(#mask-2)"><g id="contents-Clipped" transform="translate(-6.666667, 0.000000)"><mask id="mask-4" fill="#fff"><use xlink:href="#path-3"/></mask><g id="contents" fill-rule="nonzero" mask="url(#mask-4)"><path id="bottom" fill="#FFD018" d="M0,26.6666667 L53.3333333,26.6666667 L53.3333333,36.6666667 C53.3333333,38.5076158 51.8409492,40 50,40 L3.33333333,40 C1.49238417,40 0,38.5076158 0,36.6666667 L0,26.6666667 L0,26.6666667 Z"/><polygon id="middle" fill="#E31D1C" points="0 13.333 53.333 13.333 53.333 26.667 0 26.667"/><path id="middle" fill="#272727" d="M3.33333333,0 L50,0 C51.8409492,0 53.3333333,1.49238417 53.3333333,3.33333333 L53.3333333,13.3333333 L53.3333333,13.3333333 L0,13.3333333 L0,3.33333333 C0,1.49238417 1.49238417,0 3.33333333,0 Z"/></g></g></g></g><g id="overlay-Clipped"><mask id="mask-6" fill="#fff"><use xlink:href="#path-5"/></mask><circle id="overlay" cx="20" cy="20" r="20" mask="url(#mask-6)"/></g></g></g></g></svg>